<svg version="1.2" xmlns="http://www.w3.org/2000/svg" viewBox="0 0 1080 1080" width="1080" height="1080">
	<title>poster</title>
	<style>
		.s0 { fill: #fcfdfc } 
		.s1 { fill: #338658 } 
		.s2 { opacity: .5;fill: #338658 } 
	</style>
	<g id="Layer 1">
		<path id="Path 0" class="s0" d="m583.7 10.6c-0.4 1.6-1.8 6.1-3 10-1.3 4.1-1.6 22.8-0.6 45.6 0.8 21.3 0.5 82.9-0.8 137-1.9 79-3 98.7-5.6 100.1-1.7 1-4.8 5.5-6.7 10-2.5 5.9-3.5 16.9-3.5 39.2-0.1 21.4 0.8 32.3 2.9 35.1 2.6 3.6 8.5 4.2 46.3 5 23.8 0.6 58.2 1.9 76.3 3 31.7 1.9 33.1 1.8 35.4-2.7 1.3-2.6 2.9-19.4 3.5-37.5 0.7-18 0.5-35.9-0.3-39.8-0.9-4.7-3.7-8.1-8.4-10.4-4.2-2-18.2-3.8-34.9-4.6l-27.8-1.4c-1-108.9-2.3-171.6-3.6-209.6-1.2-38-3.1-71-4.2-73.5-1.2-2.4-4.4-5.3-7.3-6.4-2.9-1.1-16.9-2-31.1-2-18.7 0-26 0.8-26.6 2.9zm-458.2 2.3c-1.9 1.8-5.2 7.4-7.3 12.5-2.2 5.1-4.5 11-5.3 13.3-1 2.9-3.8 4.1-10.1 4.1-4.9-0.1-10.9 1.4-13.5 3.3-4.6 3.3-4.7 6-4.7 151 0 138.7 0.3 147.9 4.2 151.8 3.1 3.1 9.2 4.5 23.2 5.4 18.1 1.1 19.1 1.4 22.7 8.2 2.1 3.8 6.1 10.4 9 14.6 3.4 4.8 7.2 7.6 10.6 7.5 2.9 0 12.1-5.9 20.8-13.4 8.6-7.4 23.9-18.4 34-24.4 10.1-6 26.1-14.9 35.7-19.9 9.5-4.9 19.8-11.8 22.8-15.4 3-3.5 5.5-8.8 5.5-11.7 0-2.9-3.1-11.8-7-19.9-3.9-8-7-17.5-7.1-21.1 0-3.5 1.6-11.2 3.6-16.9 2-5.8 3.6-10.8 3.5-11.2 0-0.3-3.4-4.3-7.6-8.9-4.7-5.1-11.3-9.3-17-10.8-5.1-1.4-19.1-7.1-31-12.7-11.9-5.7-21.7-11.1-21.7-12.1 0-0.9 6.6-5.1 14.7-9.3 8-4.1 19.6-10.7 25.7-14.6 6.1-3.9 13.1-10.5 15.6-14.7 3.7-6.3 4-8.7 1.7-14.1-2.3-5.5-1.5-9.6 5-28.1 4.2-11.9 7.7-24.3 7.7-27.5 0-3.2-1.9-7.5-4.1-9.5-2.3-2.1-28.5-15.5-58.1-29.8-29.6-14.4-57.1-26.8-61-27.6-4.7-0.9-8.3-0.3-10.5 1.9zm699 505.3c-2.7 1.2-5.6 4.5-6.4 7.5-0.8 2.9-2.1 32.2-2.9 65.1-0.9 32.8-1.8 93.4-2.2 134.6-0.3 41.2 0.4 96.6 1.7 123 1.2 26.4 2.9 48.8 3.7 49.8 0.9 1 13.1 2.1 27.3 2.5 14.2 0.3 28.1-0.3 31-1.3 5.3-1.8 5.3-2.1 3.5-33.5-1.1-20.7-0.9-31.6 0.6-31.6 1.3 0 11.8 7.1 23.4 15.8 11.6 8.7 26.4 19.6 32.8 24.2 6.5 4.6 15.2 10.2 19.3 12.3 5.6 2.9 8.9 3.3 12.3 1.6 2.6-1.3 10-11 16.5-21.7 6.4-10.6 11.7-21.7 11.7-24.6-0.1-2.9-4-9.6-8.8-14.8-4.9-5.3-23.1-21.9-40.4-36.9-17.4-15-39.3-34.7-48.7-43.7l-17-16.4v-32.8c52-52.6 72.8-73.1 79.8-79.5 7-6.4 13.6-13 14.5-14.6 1-1.7 0.6-5.4-0.9-8.3-1.5-2.9-7.3-12.4-12.9-21.1-5.6-8.7-12.8-17.4-16-19.3-3.2-2-7.7-3.1-10-2.5-2.2 0.6-15.4 12.7-29.2 27-13.9 14.2-25.5 25.8-25.8 25.8-0.3 0-0.9-9.7-1.2-21.6-0.3-11.9-1.3-30.1-2.2-40.4-1.1-13.5-2.7-19.9-5.8-22.9-3.4-3.2-8.2-4-23.6-3.9-10.6 0.1-21.5 1.1-24.1 2.2zm-700.1 7.8c-2.6 1.8-6 7.3-7.5 12.3-2.7 8.7-3.4 9.2-12.6 9.2-7.6 0-10.7 1.2-14.3 5.8-4 5-4.8 10.7-5.8 39.8-0.6 18.7 0.1 60.3 1.6 92.5 1.5 32.2 3.4 80.7 4 107.7 0.9 34.4 0.5 50.8-1.4 54.5-2.1 4.2-1.8 6.7 1.5 12.3 2.2 3.9 5.1 7.1 6.4 7.1 1.3 0.1 13.2 0.3 26.5 0.6 21.5 0.4 24.5 1 26.7 5.2 1.3 2.5 4.1 5.9 6.2 7.5 2.9 2.2 5 2.2 8.5 0.1 2.6-1.5 24.2-17.3 48-35.1 26.3-19.6 45.4-32.4 48.6-32.3 4.3 0 5.7-1.8 7.6-9.9 1.3-5.5 4.1-13.1 6.3-17 2.1-3.8 6.9-12.5 10.5-19.3 4.7-8.7 6.1-13.5 4.6-16.4-1.1-2.2-5.6-6.8-9.9-10-4.4-3.3-15.6-10.7-25-16.4-9.4-5.8-21.6-13.4-27-16.9-5.4-3.6-13.8-8.3-18.7-10.6-4.8-2.2-8.8-4.6-8.7-5.2 0.1-0.7 11.2-8.3 24.7-17 23.2-15 24.9-15.7 32.7-13.5 7 2 8.9 1.7 12.9-2.3 2.6-2.6 7.2-13.4 10.3-24 3.2-10.6 6.7-23.5 7.9-28.7 1.2-5.3 1.3-11.2 0.2-13.5-1.1-2.2-3.9-4-6.1-4-2.3 0-11-2.8-19.3-6.1-8.4-3.4-26.3-10.9-39.9-16.7-13.5-5.7-30.3-13.1-37.4-16.3-7.1-3.2-22.6-10.5-34.6-16.2-11.9-5.7-21.9-10.3-22.2-10.4-0.3 0-2.7 1.5-5.3 3.2zm628.1 438.6c-1 1-7.3 2.2-14 2.4-6.7 0.3-17 1.3-22.8 2.2-6.4 0.9-12.6 0.5-15.8-1.1-4.3-2.1-7.5-1.6-17.3 2.6-6.7 2.9-14.6 8.2-17.6 11.7-3 3.6-5.5 7.5-5.5 8.8 0 1.3 1.9 2.4 4.1 2.4 3.8-0.1 3.9 1.7 1.9 21.6-1.2 11.9-2.2 29.4-2.3 38.9-0.1 14.6 0.5 17.6 4.5 20.3 2.6 1.8 6 2.7 7.6 2.2 1.6-0.6 3.4-2.9 3.9-5.2 0.6-2.2 1.6-10.1 2.4-17.5 0.7-7.4 2.1-13.5 3.1-13.5 1 0 4.5 7.6 7.9 17 3.4 9.3 7.6 17.9 9.4 19.1 1.7 1.1 5 1.4 7.3 0.6 2.4-0.9 4.1-4 4.1-7.4 0-3.2-3.2-13.8-7-23.4-3.9-9.7-7.1-18.7-7.1-19.9 0-1.3 2.6-5.8 5.8-10 3.1-4.2 6.8-13.1 8.2-19.9l2.4-12.3h21.1c-2.1 11.8-3.6 22.6-4.7 31.6-1.2 9-2.8 20.6-3.6 25.8-0.9 5.1-0.9 12.8-0.1 17 1 5.8 2.6 7.6 6.6 7.7 2.9 0 6.6-1.3 8.2-3 1.6-1.6 5.3-20.9 8.3-42.8 5.2-38.8 5.5-39.8 11.1-40.6 3.2-0.4 9.2-0.2 13.4 0.6 7.1 1.3 7.5 1.8 5.3 7.2-1.3 3.2-2.4 10.6-2.4 16.4 0 5.8 1 12.9 2.1 15.8 1.2 2.9 4.4 7.9 7.2 11.1 2.8 3.3 5.7 8.5 6.4 11.7 0.7 3.3 0.6 9.3-0.2 13.5l-1.4 7.6c-20-2.7-25.8-2.7-25.8-1.7 0 0.9 1.6 4.9 3.6 8.7 1.9 3.9 5.8 7.7 8.7 8.4 2.9 0.8 7.9 1 11.1 0.6 3.5-0.5 7.8-4 11.1-9 3.8-5.9 5.3-11.4 5.1-19.9-0.1-6.4-1.3-13.8-2.7-16.4-1.3-2.5-3.4-5.2-4.6-5.8-1.2-0.7-2.4-8.2-2.6-16.8-0.2-8.6 0.5-16.5 1.5-17.6 1.1-1 3.9 0.7 6.3 3.9 2.4 3.3 3.9 6.7 3.3 7.7-0.5 0.9 0.6 1.7 2.6 1.7 2.3 0 3.7-2.8 4.1-8.5 0.4-6.5-1.1-10.6-5.9-16.4-3.5-4.3-5.9-8.9-5.3-10.2 0.7-1.3-0.5-3.7-2.7-5.3-2.2-1.6-13-3.3-25.1-3.7-11.8-0.5-22.2 0-23.2 1.1zm-173.9 19.3c-1.2 0.8-4.5 6.2-7.4 12-2.8 5.8-6.8 15.3-8.9 21.1-2.3 6.5-3.7 18.1-3.7 30.4 0.1 15.9 1 21.1 4.5 25.8 2.5 3.4 7.3 6.1 11.2 6.6 4.1 0.4 8.7-1 11.6-3.5 2.6-2.4 7-8 9.7-12.5 2.7-4.5 6.1-14 7.5-21.1 1.5-7 2.1-19.2 1.3-26.9-0.8-8-3.6-17.9-6.5-22.9-2.8-4.8-5.6-8.9-6.3-9.1-0.6-0.1-3.3-0.4-6-0.7-2.7-0.3-5.8 0.1-7 0.8zm-322.3 4.7c-3.5 1.1-9.6 3.7-13.5 5.8-3.9 2.1-10.6 8.9-14.8 15-6.5 9.6-7.5 13-7.4 25.1 0 9.6 1.6 16.7 4.8 22.3 2.6 4.5 9.8 11.4 16.1 15.2 10 6.2 13.2 7 26.8 6.5 10.6-0.5 17.2-2 21.2-5 3.2-2.4 6.1-6.1 6.5-8.2 0.5-3.4-1.6-3.7-17.6-2.4-16.6 1.3-18.9 0.9-26.4-4.2-4.5-3.1-9.5-8.2-11.2-11.4-1.6-3.1-2.6-9.4-2.1-13.9 0.4-4.5 3-11.6 5.6-15.8 2.6-4.2 9.4-10.2 15-13.4 5.7-3.2 11.6-5.9 13.2-5.9 1.6 0 7.6 3.9 13.2 8.7 9.3 8.1 9.9 9.2 7 13.5-1.8 2.6-3.2 6.5-3.2 8.8 0 2.2-1.6 4.1-3.5 4.1-2 0-4.3-3.2-5.3-7.4-0.9-4-3.8-8.8-6.4-10.5-2.6-1.8-6.8-3.3-9.4-3.3-2.5 0-7.6 2.1-11.1 4.7-3.5 2.6-8.1 8.2-10.2 12.4-2 4.2-3.1 10-2.3 12.9 0.8 2.9 4 6.8 7.2 8.7 5.2 3.2 6.5 3.2 11.7 0 4.9-2.9 7.2-3 14-0.5 7.5 2.7 8.6 2.4 14.3-3 3.4-3.2 7.6-8.7 9.4-12.3 1.8-3.5 3.3-9.8 3.4-14 0-4.2-1.1-10.8-2.3-14.7-1.3-3.8-5.8-9.5-10-12.7-4.4-3.2-11.7-5.9-17-6.3-5.2-0.4-12.3 0.2-15.7 1.2z"/>
		<path id="Shape 1" class="s1" d="m49 396"/>
		<path id="Path 2" class="s0" d="m466.3 22.7c-4.3 3-4.7 6.1-4.5 34.5 0 17.2 1 78.7 2.1 136.6 1.4 75.5 1.1 117.7-0.8 148.8-2.3 35.1-2.3 43.8 0.2 46.3 1.7 1.7 7.8 3.6 13.6 4.2 6.2 0.8 15.7-0.3 23.4-2.5 7.1-2.1 13.9-3.8 15.2-3.8 1.3-0.1 4.4 0.6 7 1.5 3.2 1 6.9-0.3 11.4-4l6.7-5.5c-0.4-148.8-1.6-224.6-2.9-264.6-1.4-39.9-2.9-76-3.5-80.2-0.6-4.2-2.7-9.2-4.7-11.1-2.7-2.7-9.6-3.5-31-3.5-20.1 0-28.9 0.9-32.2 3.3zm283.1 5.4c-2.7 0.5-5.9 2.7-7.1 4.9-1.5 2.6-1.5 27.4 0.1 70.7 1.4 36.7 2.5 99.4 2.4 139.3-0.1 40-0.8 84.5-1.7 99-1.3 21.8-1 26.9 1.9 29.8 2.7 2.7 9.5 3.5 29.9 3.5 14.4 0 28.9-0.8 32-1.8 3.1-0.9 6.8-4.4 8.2-7.8 1.4-3.3 9.3-11.5 17.7-18.1 8.4-6.6 23.1-18.1 32.8-25.6 9.7-7.4 23.7-17.7 31.2-22.8 7.5-5.1 20.1-13.8 28.1-19.2 7.9-5.5 20.7-14.4 28.3-19.9 7.6-5.5 15.7-13.2 18-17.1 4.1-6.9 4.1-7.2-1.9-18.7-3.3-6.4-8.5-15.7-11.5-20.5-5.5-8.6-5.5-9-1.8-22.2 2-7.5 4.5-14.6 5.5-15.9 1-1.2 3.6-7.8 5.7-14.6 2.7-8.8 3.1-13.6 1.4-17-1.3-2.5-5.7-7.2-9.9-10.3-4.2-3-15.5-9.4-25.2-14.2-9.7-4.7-27-12.3-38.6-16.9-11.6-4.5-35.3-15.5-52.7-24.3-17.4-8.9-33.4-17.4-35.6-19.1-2.2-1.6-4.1-5.4-4.1-8.3-0.1-2.9-2.2-7.3-4.8-9.9-4-4-7.6-4.6-24-4.4-10.6 0.2-21.6 0.8-24.3 1.4zm-358.6 4.6c-7.5 0.5-10.6 2-12.6 6-2 3.8-2.5 39.6-1.8 131.1l0.9 125.9h-25.7c-2.7-89.8-3.5-144.6-3.5-179.7 0-57.6-0.4-64.3-4.1-68.1-2.7-2.8-9.2-4.9-18.8-5.9-8-0.8-20.9-2.1-28.7-2.7-11.8-1-14.7-0.5-18.7 3.5-3.5 3.5-4.3 6.4-3.1 11.1 0.9 3.6 1.5 9.1 1.5 12.3 0 3.2 0.9 14.3 1.9 24.6 1 10.3 2.5 65.1 3.1 121.8 0.7 56.7 2.5 115.7 3.9 131.1 1.4 15.5 1.9 32.3 1.1 37.5-1.1 7.2-0.4 10.3 2.7 13.5 3.6 3.7 8.8 4.2 42.8 4.2 21.2 0 49.7 1 63.2 2.3 13.5 1.3 30.1 1.7 36.9 1.1 9.9-1 12.7-2.2 14.4-6.5 1.2-2.9 2.5-21.6 2.8-41.5 0.6-34.5 0.4-36.9-5.1-48l-5.7-11.8c-0.6-179.6-0.9-237.3-1-244.1-0.1-7.6-1.5-13.6-3.7-15.8-2.4-2.5-7.8-3.4-18.1-3.1-8.1 0.2-19.1 0.8-24.6 1.2zm163.5 402.8c-1.5 7.5-3.2 14.9-3.8 16.5-0.6 1.6-2.1 3-3.4 3-1.4 0-1.9-5.1-1.2-12.9 1-10.4 0.5-12.9-2.3-12.9-1.9 0-4.1 1.3-4.8 2.9-0.8 2-4.1 2.5-9.9 1.6-4.8-0.7-11.3-2.6-14.6-4.1-4.8-2.3-6.3-2.1-9 1.4-2.8 3.5-2.6 4.5 1.2 7 2.4 1.6 5.9 3 7.8 3 2.9-0.1 3.4 3.2 2.8 18.1-0.4 9.9 0.4 19.7 1.7 21.6 1.2 1.9 3.1 2.6 4.2 1.5 1-1 2.1-7.4 2.4-14 0.2-6.6 0.5-15.5 0.5-19.7 0.1-6 1.1-7.6 4.8-7.6 2.6 0 4.8 1.3 5 2.9 0.1 1.6 0.2 3.5 0.2 4.1-0.1 0.7-0.7 8.8-1.5 18.2-1.1 14.1-0.7 17 2.2 17 1.9 0 4-1.6 4.7-3.6 0.6-1.9 1.1-6.1 1.1-9.3 0-3.7 1.4-5.9 3.5-5.9 2.5 0 3.3 1.9 2.6 6.5-0.5 3.5-0.5 7.7 0 9.3 0.5 1.6 2.3 3 3.9 3 1.9 0 4.4-8.5 7-24 2.2-13.2 4.2-26.7 4.3-29.8 0.1-3.3-1.4-6.2-3.2-6.6-2.4-0.6-4.2 3.1-6.2 12.8zm-74.5 3.2c-2.9 5.7-5.2 12.2-5.2 14.5-0.1 2.3-0.9 4.1-1.8 4.2-1 0-2.6-3.2-3.6-7.1-0.9-3.9-2.8-7.1-4-7.1-1.3 0-3.3 2.4-4.5 5.3-1.2 2.9-3.4 12.7-4.9 21.7-2 12.1-2 17-0.1 18.7 1.8 1.6 3.3 1.2 4.8-1.2 1.2-1.9 2.3-6.9 2.3-11.1 0-4.2 1.1-8.1 2.4-8.8 1.2-0.6 2.3 1 2.3 3.5 0 2.6 1.3 5.4 2.9 6.2 1.6 0.7 3.7 0.5 4.7-0.6 0.9-1.1 2.2-5.2 2.7-9.1 0.5-3.8 3.3-13.3 6.1-21 2.9-8 4.2-15 3.1-16.3-1.2-1.2-4.2 2.2-7.2 8.2zm-47-1.9c-1.4 1.6-4.1 6.9-6.1 11.7-2.1 4.8-3.7 13-3.7 18.2q0 9.3 4.7 14c2.6 2.6 6.2 4.7 8.2 4.7 2 0 6.1-5.8 9.7-13.5 4.9-10.7 5.8-15.3 4.5-22.8-0.9-5.2-2.9-10.7-4.4-12.4-1.5-1.7-4.5-3-6.6-2.9-2.1 0-5 1.4-6.3 3zm140.5 5.3c-3.1 3.5-5.6 10.6-6.5 18.1-1.2 9.6-0.7 13.2 2.3 16.4 2.2 2.5 7.3 4.2 12.6 4.2 5.1 0.1 10.2-1.4 12.2-3.6 3.2-3.4 2.7-3.7-5.8-3.6-5.2 0.1-10.7-1.2-12.3-2.8-1.7-1.6-3-4.3-3-5.9 0.1-1.6 2.9-3.7 6.4-4.7 3.5-0.9 8.1-4.9 10.4-8.8 2.9-4.9 3.4-8.2 1.9-11.1-1.2-2.2-4.7-4.1-7.7-4.1-3 0-7.7 2.6-10.5 5.9zm71.4 3.5c-14.9 0.9-19 2-21.6 5.8-1.8 2.6-2.8 5.5-2.2 6.5 0.7 0.9 8.8 1.7 18.1 1.7 9.4 0 18 1.1 19.3 2.5 1.7 1.9 4 1.8 8.2-0.2 3.3-1.5 11.7-2.6 18.8-2.3 7.1 0.3 14.2 0.5 15.8 0.3 1.6-0.1 2.9-2.9 2.9-6.1 0-5.2-0.9-5.9-8.8-5.7-4.8 0.1-14-0.7-20.5-1.8-6.4-1-19.9-1.4-30-0.7zm-328.9 2.1c-7.3 0.8-13.2 2.8-14.4 4.9-1.4 2.3-0.9 4.6 1.2 6.5 1.8 1.6 3.8 2.9 4.5 2.9 0.6 0 1.2-2.7 1.2-5.9 0-3.2 1.3-5.8 2.9-5.8 1.6 0 6.1 3.6 9.9 8.1l7.1 8.1c50.8 1.2 57.4 0.6 60.6-2.2 2.2-1.9 3.9-5.3 3.9-7.6-0.1-2.4-3.5-5.5-8.3-7.6-5.8-2.5-15.5-3.4-32.2-3.2-13.2 0.2-29.6 1-36.4 1.8zm14.7 66.1c-5.2 1.3-11.7 4.6-14.5 7.4-5 5-5.2 7.4-6.3 61.4-0.7 30.9-2.2 91-3.5 133.5-1.3 42.5-3.2 81.8-4.2 87.4-1.2 6-3.8 11.3-6.6 13.1-2.6 1.6-6.6 4.7-8.8 6.8-3.4 3.2-4.1 8-4.1 26.1 0 12.5-1 22.8-2.4 23.5-1.2 0.6-2.3 3-2.3 5.2 0.1 2.3 0.9 5.4 1.8 7 1.2 2.1 15.7 3.2 52.1 4.1 27.7 0.7 64.3 1.7 81.3 2.4 28 1.1 31.3 0.8 33.1-2.9 1.1-2.3 2.6-16.8 3.3-32.2 0.7-15.5 0.3-30.5-0.9-33.4-1.3-3.2-5.5-6.3-10.9-7.9-5.2-1.6-15.9-2.2-26.3-1.4-9.7 0.7-19 0.6-20.7-0.3-2.6-1.2-2.9-10.7-1.8-49.5 0.8-26.4 0.4-75.4-0.8-108.9-1.2-33.5-3.8-76.7-5.7-96-1.9-19.4-4.1-36.7-4.8-38.7-0.7-1.9-3.9-4.8-7.1-6.4-3.3-1.6-11.5-2.8-18.2-2.7-6.8 0.1-16.6 1.2-21.7 2.4zm201.4 1.9c-23.2 0.7-43.5 2.1-45.1 3.1-1.6 0.9-3.6 5.7-4.5 10.5-0.9 4.8-1.1 27.2-0.6 49.8 0.6 22.5 0.9 73.1 0.8 112.4-0.1 39.3-0.9 93.5-1.7 120.6-0.8 27-1.8 51.3-2.1 53.8-0.4 3 1.2 5.5 4.6 7 4.4 2 5.3 4.2 5.3 13.5 0 7.6 1.3 12.3 4.1 14.9 2.7 2.5 6.1 3.3 9.9 2.2 3.2-0.8 20.1-2.4 37.5-3.6 17.4-1.1 42.4-2.1 55.6-2.2 15.4-0.1 25.7 0.9 28.7 2.8 3.8 2.4 5.3 2.2 8.7-1.3 2.6-2.6 4.6-9.2 5.3-17.2 1.1-11.9 1.6-12.9 6.7-12.1 3 0.4 7.1-0.3 9-1.6 3.2-2.1 3.2-8.3-0.2-59.7-2.2-33.4-3.7-87.3-3.7-128.8 0-39.3-1.1-86.2-2.5-104.2-1.4-18.1-3-36-3.6-39.9-0.5-3.8-3.1-10.4-5.7-14.6l-4.6-7.6c-46.3 0.7-78.7 1.5-101.9 2.2zm226 51.6c-8.4 3.8-16.6 7-18.2 7-1.6 0.1-3.4 1.7-4.1 3.6-0.6 1.9-2.7 3.5-4.7 3.5-1.9 0-16.3 6.6-31.9 14.6-20.2 10.4-29.2 16.4-31 20.5-1.4 3.3-3.4 6.6-4.4 7.4-1.1 0.9-1.9 15.1-1.8 31.6 0.1 16.6 1.2 43.8 2.4 60.6 1.1 16.7 2.4 62.9 2.8 102.6 0.4 44.9 1.6 72.8 3.1 73.7 1.2 0.8 27.6 1.1 58.5 0.7 30.9-0.4 58-1.6 60.3-2.8 2.3-1.2 3.7-3.4 3.3-5-0.4-1.7 0.6-6.4 2.3-10.6 1.9-4.4 3.2-16.4 3.2-28.7v-21c-13.1-5.5-23.1-6.2-42.8-5.6l-27.5 0.9c-0.9-99.8-1.1-132.7-1.1-137.4 0-8.1 0.7-8.9 15.2-16.5 8.4-4.4 24.7-13.3 36.3-19.7 11.6-6.4 23.7-13.6 26.9-16.1l5.9-4.4c-10.5-30.2-16.3-44.7-19.6-51.8-4.8-10.1-7.5-13-12.1-13.5-3.2-0.3-12.7 2.6-21 6.4zm-348.6 396.4c-1.3 1.6-4.1 10.6-6.1 19.9-2 9.4-3.6 20.4-3.7 24.6 0 4.2-0.9 9.2-2 11.1-1.4 2.3-2.6-2.8-3.5-15.2-0.7-10.3-2.2-19.5-3.1-20.4-1-0.9-3-0.9-4.4 0-1.5 0.9-4.2 6.4-6.1 12.2-3 8.9-4.4 10.5-9.2 10-3-0.3-13-1.1-22-1.7-9-0.6-17.8-0.4-19.5 0.6-1.7 0.9-2.7 3.7-2.3 6.2 0.5 2.9 3.7 5.6 8.5 7.1l7.7 2.4c-1.3 44.1-0.8 48.4 2.7 52 3.6 3.7 4.5 3.8 7.5 0.7 2.2-2.3 3.9-11.1 4.9-24.6 0.8-11.6 2.2-22.3 3-23.8 0.9-1.4 4.2-3 7.4-3.5 5.3-0.7 5.8-0.1 5.1 6.2-0.4 3.9-1 14.7-1.2 24.1-0.3 12.9 0.5 17.6 3.2 19.3 2.6 1.7 4.9 0.8 8.7-3.6 4.2-4.5 5.3-8.6 5.3-18.7 0-7.1 1.1-12.9 2.4-12.9 1.3 0 2.3 7 2.3 16.4 0 11.5 1.1 17.5 3.5 19.9 2.2 2.2 5 2.8 7.4 1.8 2.1-1 4.8-4.2 5.8-7.1 1.1-2.9 2.1-11.8 2.2-19.9 0-8 2.5-28.8 5.4-46.2 3.2-19 4.6-33.3 3.4-35.7-1.1-2.3-3.9-4.1-6.4-4.1-2.4 0-5.5 1.3-6.9 2.9zm227.9 4c-2.7 4.9-3.7 12.9-3.6 27.5 0.1 11.3-0.6 25.6-1.6 31.8-1 6.1-2.5 11.1-3.5 11.1-1 0-1.1-10.8-0.2-24 1-16.4 0.6-25.7-1.2-29.3-1.5-2.9-4.6-5.3-6.8-5.4-2.3 0-5.4 1.3-7 2.9-1.7 1.8-3.5 13.1-4.4 26.5-0.9 14-0.4 29 1.2 37.5 1.4 7.7 4.6 16.6 6.9 19.9 3.2 4.2 6.6 5.8 12.3 5.8 6.1 0 8.5-1.3 10.7-5.8 1.6-3.3 4.8-12.7 7.1-21.1 3.1-11.1 4.2-23.5 4.2-45.9 0-23.9-0.7-31.6-3.5-34.7-1.9-2.1-4.3-3.9-5.2-3.8-1 0-3.4 3.2-5.4 7zm-198.6 14.9c-2.7 2.1-5.1 8.5-6.4 17.1-1.2 7.6-2.8 26.4-3.7 41.9-1.3 24.2-1 28.6 2.4 32.2 3.1 3.3 6.2 3.8 17.3 2.6 7.4-0.8 14.5-2.4 15.8-3.6 1.5-1.4 1.1-2.9-1.2-4.3-1.9-1.2-3.8-1.4-4.1-0.5-0.4 0.9-3.4 1.1-6.8 0.5-3.3-0.6-6.5-2-6.9-2.9-0.5-1-0.4-7.3 0.3-14.1 1.1-10 2.4-12.8 7.1-15.2 3.1-1.6 5.7-4.5 5.7-6.4 0-2-2.2-4.3-5-5.3-4.4-1.6-4.8-3-3.5-12.3 0.9-5.8 1.5-12.1 1.4-14.1 0-1.9 2.9-4.7 6.4-6.3 3.6-1.5 9.2-3.1 12.4-3.5 3.4-0.4 5.9-2.2 5.9-4.2 0-2.7-3.7-3.7-16.4-4.2-11.4-0.5-17.7 0.3-20.7 2.6zm91.4 9.2c-4.6 6.8-10.6 17.6-13.5 24-3.6 8.4-5.1 16.9-5.4 30.1-0.3 17.7-0.1 18.5 6.7 24 3.9 3.1 10.2 6.3 14.1 7.1 3.9 0.8 9.9 0.8 13.5 0 4.9-1.1 6.3-2.7 5.8-6.7-0.4-3.5-3.8-6.9-9.9-10.1-8.6-4.4-9.5-5.8-10.1-15.3-0.5-7.3 1.7-17.2 7.6-33.8 4.6-12.9 8.3-25.2 8.3-27.5 0-2.4-1.8-4.1-4.3-4.1-2.7 0-7.7 4.9-12.8 12.3z"/>
		<path id="Path 3" class="s2" d="m148.7 116.8c0.3 9.1 0.8 10 4.4 8 2.3-1.2 6.5-4.1 9.5-6.4l5.4-4.2-19.5-7.8zm3.9 152.8c-0.8 6-1.4 13.8-1.3 17.4 0 3.6 1.3 6.4 2.9 6.4 1.6-0.1 6.6-2.4 11.1-5.2 4.5-2.7 10.6-6.9 13.5-9.3l5.3-4.2c-14.6-9.1-21.3-12.7-24.5-13.9-5.4-2.1-5.7-1.7-7 8.8zm1 356.4c0 5.1 0.8 9.4 1.8 9.4 0.9 0 4.4-2.6 7.6-5.9 3.2-3.2 5.3-6.3 4.7-6.7-0.7-0.5-3.6-2.1-6.5-3.6-2.9-1.4-5.8-2.6-6.4-2.6-0.7 0-1.2 4.2-1.2 9.4zm2.4 148.7v22.2c15.4-10.8 22.5-16 25.7-18.5 3.8-3 5.1-5.4 3.5-6.8-1.3-1.2-7.3-6-13.4-10.7-6.2-4.7-12.2-8.5-13.5-8.5-1.4 0-2.3 9-2.3 22.3zm532 210.1c-1.3 1.6-2.2 8.5-2 15.3 0.2 6.7 0.6 12.3 1 12.3 0.3 0 2.1-3.7 4.1-8.2 1.9-4.6 3.5-11.4 3.5-15.3 0-3.8-1-7-2.1-7-1.2 0-3.2 1.3-4.5 2.9zm-106.6 26.8c-2 6.2-4.5 20.2-5.4 31.2-1.3 15.9-0.9 20.3 1.7 21.9 2 1.2 4.2 0.9 5.6-0.7 1.3-1.5 3.5-6.6 4.9-11.4 1.4-4.7 2.4-18 2.3-29.5-0.1-12.9-1.1-21.2-2.7-21.8-1.4-0.5-4.3 4.2-6.4 10.3zm226.4-838.2c0.9 8.7 2.4 31.8 3.3 51.3l1.7 35.5c14.5-12.9 30.1-27.8 44-41.4 13.9-13.7 25.2-25.4 25.2-26.1 0-0.6-5-3.7-11.2-6.8-6.1-3.1-22.3-10.7-35.9-17-13.7-6.2-25.7-11.3-26.7-11.3-1.1 0-1.2 7.1-0.4 15.8zm-265.5 531.6c0 53.8-0.8 101.7-1.7 106.6l-1.8 8.8 52.7-0.1c0-34.5-1-49.5-2.2-55.6-1.3-6.1-3.2-44-4.2-84.3l-1.9-73.2h-40.8z"/>
		<path id="Shape 2" class="s1" d="m51 512"/>
	</g>
</svg>